<?xml version="1.0" standalone="no"?>
<!DOCTYPE svg PUBLIC "-//W3C//DTD SVG 20010904//EN"
 "http://www.w3.org/TR/2001/REC-SVG-20010904/DTD/svg10.dtd">
<svg version="1.0" xmlns="http://www.w3.org/2000/svg"
 width="640.000000pt" height="640.000000pt" viewBox="0 0 640.000000 640.000000"
 preserveAspectRatio="xMidYMid meet">

<g transform="translate(0.000000,640.000000) scale(0.100000,-0.100000)"
fill="#000000" stroke="none">
<path d="M2490 6076 c0 -9 30 -14 35 -6 4 6 -3 10 -14 10 -12 0 -21 -2 -21 -4z"/>
<path d="M2598 6063 c6 -2 18 -2 25 0 6 3 1 5 -13 5 -14 0 -19 -2 -12 -5z"/>
<path d="M2665 6036 c11 -8 27 -16 35 -16 20 0 1 16 -30 25 -24 7 -24 7 -5 -9z"/>
<path d="M3879 6039 c-9 -6 8 -9 52 -9 57 0 73 -5 123 -35 32 -19 61 -35 65
-35 10 -1 51 -38 51 -47 0 -5 13 -24 28 -43 32 -39 54 -84 70 -145 6 -22 18
-65 26 -95 21 -71 31 -173 20 -197 -4 -10 -9 -45 -10 -78 -1 -33 -9 -87 -19
-120 -41 -143 -57 -203 -65 -241 -12 -58 -47 -160 -74 -219 -13 -27 -34 -77
-46 -110 -33 -90 -80 -185 -91 -185 -5 0 -9 -8 -9 -17 0 -10 -11 -36 -23 -59
-12 -22 -36 -68 -54 -101 -18 -33 -39 -63 -48 -66 -8 -4 -15 -14 -15 -22 0 -9
-27 -54 -59 -100 -33 -46 -69 -101 -80 -122 -11 -21 -33 -53 -50 -70 -16 -18
-50 -59 -74 -90 -56 -73 -191 -211 -277 -283 -36 -30 -73 -62 -82 -72 -62 -61
-171 -101 -210 -77 -10 7 -10 9 0 9 6 0 12 7 12 15 0 20 -17 19 -29 -2 -9 -16
-14 -14 -48 20 -22 20 -44 37 -51 37 -7 0 -12 7 -12 15 0 8 -5 15 -11 15 -5 0
-7 5 -4 10 3 6 -5 14 -19 20 -14 5 -32 22 -40 37 -8 15 -27 36 -43 47 -15 10
-37 31 -48 46 -52 73 -81 109 -97 119 -16 10 -16 8 -6 -13 24 -55 -14 -73 -64
-31 -16 14 -36 25 -43 25 -7 0 -52 33 -98 73 -84 72 -117 93 -232 149 -33 17
-82 45 -108 64 -26 19 -73 47 -105 62 -31 16 -66 33 -77 39 -46 24 -385 166
-425 177 -47 14 31 -29 88 -48 28 -10 54 -22 57 -27 4 -5 13 -9 21 -9 8 0 38
-14 67 -30 28 -17 59 -35 67 -40 8 -4 36 -18 63 -29 26 -12 47 -24 47 -29 0
-4 26 -19 58 -34 31 -15 63 -37 70 -48 7 -11 18 -20 25 -20 12 0 147 -94 157
-109 3 -5 23 -18 45 -29 22 -11 56 -36 77 -54 20 -18 75 -67 123 -108 48 -41
101 -93 120 -115 18 -22 53 -62 79 -90 25 -27 46 -53 46 -56 0 -3 11 -18 24
-32 13 -14 45 -53 70 -86 41 -53 46 -65 47 -115 2 -59 -21 -110 -60 -134 -12
-7 -21 -19 -21 -27 0 -8 -10 -20 -22 -26 -13 -6 -37 -26 -54 -43 -66 -66 -136
-126 -184 -157 -27 -18 -50 -36 -50 -40 0 -7 -84 -61 -168 -109 -15 -8 -29
-18 -32 -21 -6 -9 -67 -43 -155 -89 -38 -20 -100 -53 -136 -73 -37 -20 -72
-37 -78 -37 -6 0 -34 -15 -61 -34 -28 -19 -67 -40 -87 -47 -21 -7 -42 -17 -48
-24 -5 -6 -35 -21 -65 -34 -30 -13 -84 -38 -120 -56 -36 -18 -85 -39 -110 -46
-25 -7 -49 -16 -55 -20 -5 -4 -30 -10 -55 -15 -50 -9 -49 -8 -70 -16 -39 -15
-191 -59 -240 -69 -30 -7 -130 -13 -222 -13 -173 -1 -187 -7 -73 -33 254 -56
252 -56 440 -50 196 5 255 17 395 77 41 17 98 38 125 45 71 19 251 87 313 119
28 14 75 43 102 64 28 21 73 46 100 56 27 10 60 26 72 35 33 26 135 81 149 81
7 0 21 -7 31 -17 10 -9 18 -12 18 -6 0 5 24 41 53 79 107 143 201 245 333 359
38 33 71 63 74 66 3 4 27 25 55 48 43 35 56 41 98 41 54 0 90 -16 126 -54 14
-14 30 -26 37 -26 7 0 20 -13 29 -28 10 -16 27 -32 39 -38 11 -5 25 -19 31
-31 5 -13 14 -23 20 -23 12 0 112 -111 137 -150 9 -16 20 -29 25 -31 5 -2 29
-33 54 -68 121 -174 169 -247 169 -254 0 -9 80 -143 111 -189 11 -14 19 -33
19 -42 0 -9 11 -29 25 -45 29 -31 65 -98 65 -118 0 -8 6 -16 14 -19 7 -3 28
-38 47 -77 18 -40 45 -92 60 -117 15 -25 35 -65 44 -90 9 -25 21 -54 26 -65 4
-11 13 -40 19 -65 6 -25 15 -54 19 -65 59 -141 82 -234 99 -397 14 -147 14
-163 -2 -251 -10 -52 -28 -110 -40 -130 -11 -19 -35 -58 -52 -86 -42 -70 -93
-122 -140 -145 -21 -10 -48 -24 -59 -29 -65 -34 -273 -59 -300 -37 -9 8 -15 8
-20 0 -3 -5 2 -13 12 -16 10 -3 54 -20 98 -37 131 -52 251 -49 405 10 72 27
131 76 181 150 17 27 42 59 55 73 13 14 34 55 48 90 13 36 31 83 41 105 13 29
17 71 18 170 2 114 -1 136 -19 175 -12 25 -26 61 -32 80 -35 118 -97 300 -113
330 -10 19 -41 82 -68 140 -68 142 -154 304 -180 336 -11 14 -23 42 -27 63
-23 127 -184 384 -319 510 -27 25 -34 61 -11 61 8 0 17 -4 20 -9 3 -5 15 -11
26 -14 26 -7 18 6 -34 52 -73 64 -206 195 -206 202 0 3 -16 24 -35 45 -19 21
-47 56 -62 78 -15 23 -44 61 -64 86 -77 96 -93 127 -90 183 2 54 23 95 68 130
13 10 23 25 23 33 0 8 7 14 16 14 9 0 30 16 47 35 17 19 35 35 40 35 5 0 24
16 43 35 18 19 37 35 42 35 5 0 17 9 28 21 10 12 32 28 47 36 16 8 49 30 74
49 25 19 62 42 81 50 20 8 39 18 42 23 6 10 43 30 150 81 47 23 127 62 179 88
52 26 101 46 108 44 7 -2 19 2 25 8 7 5 24 19 38 30 17 15 19 18 5 11 -11 -5
-54 -24 -95 -42 -41 -18 -82 -38 -90 -44 -18 -14 -100 -45 -118 -45 -25 0 -11
41 32 94 25 30 59 81 76 113 17 32 39 67 49 78 11 11 47 76 81 145 35 69 68
132 75 140 6 8 22 44 35 80 13 36 29 72 35 80 11 13 47 114 117 330 17 51 23
103 29 245 4 99 10 206 14 237 8 62 -7 167 -30 202 -7 12 -17 39 -21 61 -19
108 -91 178 -234 229 -41 15 -121 49 -177 77 -103 50 -191 69 -224 48z"/>
<path d="M3773 6033 c9 -2 23 -2 30 0 6 3 -1 5 -18 5 -16 0 -22 -2 -12 -5z"/>
<path d="M2767 5968 c47 -39 103 -101 103 -116 0 -6 3 -12 8 -14 10 -4 75 -88
68 -88 -3 0 2 -16 10 -35 8 -19 12 -35 8 -35 -3 0 2 -7 10 -16 9 -8 28 -53 42
-99 14 -47 30 -82 35 -79 5 3 26 37 45 77 20 39 58 100 86 136 58 78 171 181
197 181 10 0 25 7 32 16 7 9 36 29 64 45 57 33 50 40 -10 8 -66 -35 -137 -84
-204 -143 -36 -31 -74 -56 -85 -56 -25 0 -59 27 -75 57 -23 45 -114 101 -238
147 -67 25 -125 46 -129 46 -4 0 11 -15 33 -32z"/>
<path d="M2355 5879 c-16 -4 -47 -12 -68 -17 -21 -6 -57 -22 -79 -37 -46 -31
-127 -114 -128 -131 0 -6 -7 -25 -15 -42 -46 -92 -48 -264 -4 -436 40 -157 81
-291 93 -298 6 -4 8 -8 4 -8 -12 0 18 -87 42 -121 13 -17 40 -64 60 -103 58
-114 139 -251 180 -306 29 -39 63 -96 124 -212 23 -43 50 -88 61 -100 26 -30
102 -152 110 -178 3 -11 13 -20 21 -20 7 0 20 -15 28 -33 7 -19 27 -49 43 -68
16 -19 35 -47 41 -64 8 -19 27 -37 52 -49 26 -13 40 -26 40 -39 0 -17 6 -18
53 -14 59 5 115 26 136 50 7 10 19 17 25 17 13 0 106 97 106 110 0 5 6 13 13
17 7 4 28 28 47 53 18 25 38 50 45 55 6 6 22 28 35 50 27 45 84 121 132 178
18 22 36 48 40 58 4 10 11 19 16 19 11 0 63 75 86 125 11 22 34 61 53 87 18
26 33 50 33 53 0 5 16 26 65 84 42 49 59 78 75 131 7 25 19 52 25 60 7 8 24
46 39 84 15 39 38 83 52 99 30 35 74 131 81 175 3 17 10 32 14 32 5 0 9 9 9
19 0 11 5 23 10 26 6 3 10 24 10 45 0 21 5 51 11 67 7 15 13 37 15 48 1 11 7
40 11 65 5 25 5 63 1 85 -4 22 -7 60 -7 85 0 25 0 50 -1 55 -1 6 -3 15 -4 22
0 6 -20 34 -44 62 -39 46 -112 91 -147 91 -6 0 -27 8 -46 17 -19 9 -56 19 -84
21 -27 2 -63 4 -80 5 -16 1 -34 -1 -40 -4 -5 -4 -24 -9 -41 -12 -17 -3 -39 -9
-50 -14 -10 -5 -34 -17 -52 -26 -19 -9 -42 -17 -52 -17 -10 0 -22 -4 -25 -10
-3 -5 -18 -10 -32 -10 -14 0 -41 -11 -59 -25 -18 -14 -37 -25 -42 -25 -5 0
-31 -25 -57 -55 -25 -30 -52 -55 -59 -55 -14 0 -97 -102 -136 -167 -14 -23
-46 -77 -72 -120 -26 -43 -48 -84 -48 -90 0 -7 -4 -13 -9 -13 -13 0 -28 37
-34 85 -1 11 -8 30 -15 43 -7 12 -10 22 -7 22 4 0 -3 11 -14 25 -11 14 -23 40
-26 58 -7 31 -27 83 -46 119 -5 10 -9 27 -9 38 0 11 -4 20 -10 20 -5 0 -10 6
-10 13 0 16 -111 137 -127 137 -6 0 -24 13 -40 28 -57 57 -121 83 -208 86 -44
2 -93 0 -110 -5z"/>
<path d="M1902 5300 c0 -19 2 -27 5 -17 2 9 2 25 0 35 -3 9 -5 1 -5 -18z"/>
<path d="M1912 5235 c0 -16 2 -22 5 -12 2 9 2 23 0 30 -3 6 -5 -1 -5 -18z"/>
<path d="M1925 5176 c9 -43 33 -96 33 -71 0 11 -8 38 -19 60 -16 33 -18 35
-14 11z"/>
<path d="M1960 5063 c0 -12 5 -25 11 -28 17 -11 18 -2 4 25 -14 24 -14 24 -15
3z"/>
<path d="M1980 4996 c0 -32 40 -150 61 -181 19 -28 20 -28 14 -5 -4 14 -13 39
-20 55 -7 17 -18 53 -25 80 -14 53 -30 81 -30 51z"/>
<path d="M2060 4774 c0 -7 21 -50 46 -95 25 -46 42 -73 38 -59 -12 46 -84 176
-84 154z"/>
<path d="M2150 4584 c0 -10 53 -107 72 -133 22 -29 23 -20 3 19 -9 17 -12 30
-8 30 5 0 1 6 -8 13 -9 7 -23 27 -33 45 -15 30 -26 40 -26 26z"/>
<path d="M578 4483 c6 -2 18 -2 25 0 6 3 1 5 -13 5 -14 0 -19 -2 -12 -5z"/>
<path d="M525 4470 c-16 -7 -17 -9 -3 -9 9 -1 20 4 23 9 7 11 7 11 -20 0z"/>
<path d="M445 4450 c-3 -5 1 -10 9 -10 8 0 18 5 21 10 3 6 -1 10 -9 10 -8 0
-18 -4 -21 -10z"/>
<path d="M2269 4368 c16 -29 43 -80 59 -113 46 -94 169 -286 192 -300 19 -11
10 10 -13 31 -12 12 -44 61 -70 110 -26 49 -67 123 -91 164 -24 41 -41 80 -39
87 3 7 0 13 -5 13 -6 0 -13 8 -16 18 -3 9 -15 23 -27 30 -18 12 -17 7 10 -40z"/>
<path d="M256 4282 c-49 -81 -46 -92 5 -13 22 35 38 65 36 68 -3 2 -21 -23
-41 -55z"/>
<path d="M754 4309 c-3 -5 -24 -13 -47 -19 -43 -11 -73 -23 -117 -45 -28 -14
-93 -94 -113 -137 -6 -16 -15 -28 -19 -28 -5 0 -8 -9 -8 -19 0 -11 -4 -22 -9
-26 -6 -3 -10 -13 -10 -23 1 -9 0 -51 -1 -93 -2 -52 3 -87 13 -110 9 -19 25
-59 37 -91 11 -31 27 -62 35 -68 8 -7 15 -17 15 -22 0 -17 61 -88 76 -88 8 0
14 -6 14 -13 0 -14 60 -77 73 -77 5 0 18 -11 31 -25 13 -14 26 -25 29 -25 3 0
41 -21 84 -47 43 -27 98 -56 123 -66 75 -31 149 -68 155 -77 8 -12 -88 -40
-142 -41 -122 -1 -441 -132 -417 -171 3 -5 0 -8 -8 -6 -19 4 -104 -85 -129
-134 -11 -21 -23 -38 -27 -38 -9 0 -28 -66 -37 -127 -7 -46 11 -153 26 -153 5
0 9 -6 9 -13 0 -7 13 -26 28 -43 15 -16 49 -54 75 -85 26 -31 62 -62 80 -69
17 -6 40 -16 49 -21 24 -12 232 -12 349 0 96 11 245 56 369 114 30 14 102 46
160 71 58 26 112 51 120 56 8 5 43 23 77 39 34 16 71 39 82 50 12 12 21 16 21
9 0 -9 3 -9 12 0 7 7 18 12 25 12 7 0 48 25 92 55 44 30 86 55 93 55 8 0 45
21 83 46 39 25 88 55 110 67 22 12 47 27 55 33 8 7 21 14 29 16 7 2 24 12 36
23 41 36 112 85 124 85 17 0 171 159 171 177 0 9 -10 51 -22 94 -18 68 -27 83
-61 111 -22 18 -60 52 -84 75 -23 24 -48 44 -55 45 -6 2 -20 11 -30 21 -10 9
-28 17 -40 17 -12 0 -18 3 -15 6 8 9 -41 52 -68 60 -11 4 -36 19 -55 35 -19
15 -47 31 -62 34 -16 4 -28 11 -28 15 0 4 -24 24 -54 44 -29 19 -72 51 -96 71
-23 19 -54 38 -69 41 -28 7 -83 34 -91 46 -3 4 -28 17 -55 29 -28 12 -66 34
-85 49 -32 24 -79 49 -135 69 -11 4 -49 22 -85 39 -36 18 -70 32 -75 32 -6 0
-25 14 -43 30 -18 17 -39 31 -45 31 -50 5 -70 10 -99 25 -18 9 -40 22 -48 29
-8 7 -30 15 -48 18 -17 4 -38 8 -45 10 -67 20 -105 25 -185 25 -51 -1 -95 -5
-98 -9z m101 -1199 c3 -5 4 -14 0 -20 -8 -13 -35 -1 -35 16 0 16 26 19 35 4z"/>
<path d="M5268 4303 c29 -2 74 -2 100 0 26 2 2 3 -53 3 -55 0 -76 -1 -47 -3z"/>
<path d="M5495 4300 c119 -14 191 -42 290 -117 50 -37 99 -78 110 -92 25 -31
54 -91 55 -111 0 -9 4 -20 9 -25 21 -21 42 -295 23 -295 -4 0 -8 -17 -8 -37 0
-21 -15 -69 -33 -108 -26 -56 -47 -83 -107 -135 -40 -36 -85 -69 -99 -74 -14
-6 -25 -13 -25 -18 0 -4 -6 -8 -14 -8 -7 0 -19 -7 -26 -15 -7 -8 -37 -22 -67
-31 -30 -9 -75 -25 -99 -36 -24 -10 -48 -16 -53 -13 -5 3 -12 1 -15 -4 -4 -5
-24 -12 -46 -16 -22 -4 -40 -11 -40 -16 0 -5 36 -30 79 -55 44 -25 99 -64 123
-85 24 -21 46 -39 50 -39 13 0 133 -164 130 -178 -2 -8 3 -21 11 -30 25 -28
77 -131 77 -152 0 -11 6 -39 14 -62 8 -24 17 -86 19 -139 2 -53 7 -101 11
-107 3 -6 2 -13 -3 -16 -5 -3 -12 -33 -16 -66 -4 -33 -11 -63 -17 -66 -5 -3
-13 -16 -19 -27 -48 -111 -195 -204 -349 -222 -14 -2 -54 -9 -89 -15 l-63 -13
53 -19 c45 -17 81 -20 219 -22 l165 -1 103 38 c82 30 112 47 152 85 27 26 63
60 79 75 46 42 66 120 65 247 -1 162 -23 232 -123 402 -83 142 -211 273 -306
314 -86 36 -88 58 -7 74 71 14 105 27 262 104 105 51 135 71 188 126 111 113
127 167 119 387 l-5 155 -39 74 c-21 42 -48 84 -60 96 -63 59 -230 152 -297
165 -29 6 -50 15 -171 76 -76 38 -151 57 -219 56 l-61 -2 70 -7z"/>
<path d="M5050 4270 c-21 -7 -21 -8 -5 -9 11 0 27 4 35 9 18 11 5 11 -30 0z"/>
<path d="M4970 4250 c-13 -9 -13 -10 0 -10 8 0 22 5 30 10 13 9 13 10 0 10 -8
0 -22 -5 -30 -10z"/>
<path d="M4920 4240 c-23 -7 -23 -8 -3 -9 12 -1 25 4 28 9 3 6 5 10 3 9 -2 -1
-14 -5 -28 -9z"/>
<path d="M4845 4225 c-5 -2 -30 -9 -54 -15 -23 -6 -41 -13 -39 -16 5 -4 129
25 137 32 5 5 -30 4 -44 -1z"/>
<path d="M213 4140 c0 -36 2 -50 4 -32 2 17 2 47 0 65 -2 17 -4 3 -4 -33z"/>
<path d="M4718 4183 c7 -3 16 -2 19 1 4 3 -2 6 -13 5 -11 0 -14 -3 -6 -6z"/>
<path d="M4631 4154 c-29 -14 -51 -27 -48 -30 3 -3 31 8 63 25 71 36 60 40
-15 5z"/>
<path d="M5190 4158 c-52 -4 -106 -11 -120 -14 -14 -4 -32 -8 -40 -10 -8 -1
-26 -5 -40 -8 -14 -3 -45 -9 -70 -14 -25 -5 -59 -16 -77 -25 -18 -9 -40 -17
-49 -17 -10 0 -50 -16 -91 -35 -41 -19 -79 -35 -86 -35 -7 0 -22 -7 -33 -15
-10 -8 -33 -15 -50 -15 -16 0 -34 -4 -40 -8 -5 -5 -31 -17 -59 -27 -27 -10
-52 -21 -55 -24 -5 -7 -18 -13 -133 -65 -44 -20 -85 -36 -93 -36 -8 0 -25 -11
-38 -25 -34 -36 -94 -75 -116 -75 -11 0 -28 -8 -39 -19 -10 -10 -38 -28 -63
-40 -76 -39 -178 -119 -178 -141 0 -15 -7 -20 -25 -20 -21 0 -62 -28 -117 -82
-9 -10 -35 -29 -57 -43 -53 -33 -67 -58 -46 -87 8 -13 15 -29 15 -38 0 -8 12
-38 26 -65 26 -49 46 -77 112 -154 17 -21 32 -42 32 -46 0 -4 15 -24 33 -45
17 -20 39 -45 48 -56 23 -27 105 -102 169 -154 30 -25 57 -48 58 -52 2 -5 10
-8 17 -8 8 0 35 -20 61 -45 25 -25 51 -45 57 -45 7 0 34 -20 61 -45 26 -25 52
-45 57 -45 5 0 31 -16 58 -35 26 -19 55 -35 63 -35 8 0 19 -5 25 -11 6 -6 20
-16 31 -23 11 -6 35 -23 53 -37 19 -14 63 -37 99 -51 36 -14 72 -29 80 -32 8
-3 33 -17 55 -31 63 -39 159 -83 191 -88 17 -3 45 -12 62 -21 17 -9 44 -18 59
-20 16 -2 53 -10 83 -19 92 -27 208 -41 223 -29 8 7 29 9 49 6 57 -10 169 30
214 74 20 20 42 51 49 67 10 23 25 179 30 310 0 6 -6 9 -12 7 -15 -2 -17 14
-4 23 13 7 3 91 -17 144 -9 24 -32 61 -51 81 -20 20 -47 53 -61 73 -14 20 -30
37 -37 37 -7 0 -10 6 -8 13 3 6 -7 21 -22 32 -16 11 -55 46 -88 78 -33 32 -69
64 -79 69 -11 6 -25 15 -30 20 -24 20 -206 123 -276 156 l-75 36 54 12 c30 7
59 10 64 7 4 -3 50 4 100 15 51 11 121 25 157 32 75 14 284 89 350 127 50 28
150 121 150 139 0 6 8 22 19 35 21 28 29 63 37 181 l6 87 -33 43 c-19 24 -38
49 -44 56 -27 36 -71 72 -109 87 -22 9 -54 23 -71 31 -50 23 -163 44 -223 42
-31 -1 -100 -6 -152 -10z"/>
<path d="M4473 4087 c-38 -14 -60 -34 -49 -44 4 -5 13 0 20 9 6 9 27 23 46 31
41 18 29 21 -17 4z"/>
<path d="M4360 4030 c-8 -5 -10 -10 -5 -10 6 0 17 5 25 10 8 5 11 10 5 10 -5
0 -17 -5 -25 -10z"/>
<path d="M212 3953 c-1 -41 6 -85 19 -128 27 -80 38 -79 13 2 -10 32 -21 87
-24 123 l-7 65 -1 -62z"/>
<path d="M2550 3911 c0 -6 4 -13 10 -16 6 -3 7 1 4 9 -7 18 -14 21 -14 7z"/>
<path d="M260 3742 c0 -17 45 -102 70 -131 33 -38 33 -18 0 25 -16 21 -30 42
-30 46 0 14 -40 73 -40 60z"/>
<path d="M375 3540 c10 -11 20 -20 23 -20 3 0 -3 9 -13 20 -10 11 -20 20 -23
20 -3 0 3 -9 13 -20z"/>
<path d="M3290 3300 c0 -5 5 -10 10 -10 6 0 10 5 10 10 0 6 -4 10 -10 10 -5 0
-10 -4 -10 -10z"/>
<path d="M718 3255 c2 -14 11 -25 18 -25 20 0 17 28 -5 39 -16 9 -17 7 -13
-14z"/>
<path d="M2790 3170 c0 -5 5 -10 10 -10 6 0 10 5 10 10 0 6 -4 10 -10 10 -5 0
-10 -4 -10 -10z"/>
<path d="M444 3134 c-18 -14 -18 -15 4 -4 12 6 22 13 22 15 0 8 -5 6 -26 -11z"/>
<path d="M389 3100 c-13 -10 -19 -19 -13 -20 6 0 19 9 29 20 23 26 14 26 -16
0z"/>
<path d="M329 3053 l-24 -28 28 24 c25 23 32 31 24 31 -2 0 -14 -12 -28 -27z"/>
<path d="M3070 3030 c0 -5 5 -10 10 -10 6 0 10 5 10 10 0 6 -4 10 -10 10 -5 0
-10 -4 -10 -10z"/>
<path d="M245 2978 l-40 -43 43 40 c23 21 42 40 42 42 0 8 -9 0 -45 -39z"/>
<path d="M186 2903 c-6 -14 -5 -15 5 -6 7 7 10 15 7 18 -3 3 -9 -2 -12 -12z"/>
<path d="M2954 2881 c-17 -10 -42 -34 -55 -53 -13 -18 -31 -42 -41 -52 -10
-11 -18 -23 -18 -28 0 -4 -5 -8 -11 -8 -15 0 -189 -182 -189 -197 0 -7 -4 -13
-8 -13 -10 0 -151 -208 -175 -257 -10 -21 -26 -54 -36 -73 -115 -216 -215
-430 -248 -530 -8 -25 -21 -60 -29 -78 -16 -35 -53 -168 -86 -312 -20 -88 -28
-302 -11 -307 5 -2 7 -19 5 -38 -10 -87 92 -228 197 -273 50 -21 158 -21 202
0 19 9 45 21 59 27 44 19 184 136 217 182 18 24 38 51 46 60 34 39 89 127 140
224 38 71 87 179 87 190 0 7 10 34 21 61 l22 48 23 -53 c13 -30 24 -57 24 -61
0 -4 11 -32 23 -61 13 -30 32 -73 42 -97 11 -23 25 -42 33 -42 8 0 11 -7 7
-19 -5 -17 88 -215 119 -251 8 -8 21 -28 29 -45 30 -58 148 -165 182 -165 8 0
15 -4 15 -8 0 -5 19 -14 43 -21 23 -7 52 -17 65 -22 63 -25 171 -2 254 54 72
48 103 82 131 147 34 77 52 236 34 290 -5 14 -10 56 -13 94 -2 37 -10 80 -17
95 -7 14 -18 35 -24 46 -5 11 -18 36 -28 55 -10 19 -22 42 -26 50 -5 8 -30 67
-57 130 -27 63 -70 153 -95 200 -96 182 -189 346 -203 356 -8 6 -14 15 -14 20
0 7 -80 146 -129 224 -43 69 -91 160 -91 173 0 7 -14 28 -30 47 -17 19 -58 70
-90 112 -33 43 -73 84 -89 93 -17 8 -34 21 -38 28 -14 22 -74 67 -83 62 -5 -3
-11 -1 -15 5 -9 15 -37 12 -71 -9z"/>
<path d="M147 2826 c-4 -10 -7 -25 -6 -34 0 -11 4 -9 10 7 5 13 8 29 6 35 -2
5 -6 2 -10 -8z"/>
<path d="M130 2742 c0 -18 5 -32 10 -32 6 0 8 11 4 28 -10 39 -14 40 -14 4z"/>
<path d="M133 2560 c0 -30 2 -43 4 -27 2 15 2 39 0 55 -2 15 -4 2 -4 -28z"/>
<path d="M255 2262 c22 -24 57 -52 78 -63 49 -26 47 -18 -5 17 -24 15 -59 42
-78 58 -33 29 -32 28 5 -12z"/>
<path d="M4268 2263 c7 -3 16 -2 19 1 4 3 -2 6 -13 5 -11 0 -14 -3 -6 -6z"/>
<path d="M4425 2170 c3 -5 11 -10 16 -10 6 0 7 5 4 10 -3 6 -11 10 -16 10 -6
0 -7 -4 -4 -10z"/>
<path d="M4501 2136 c10 -9 69 -36 69 -32 0 6 -55 36 -66 36 -4 0 -5 -2 -3 -4z"/>
<path d="M1873 1314 c-6 -27 -10 -51 -8 -52 6 -6 27 78 23 90 -2 6 -9 -11 -15
-38z"/>
<path d="M1842 1200 c0 -14 2 -19 5 -12 2 6 2 18 0 25 -3 6 -5 1 -5 -13z"/>
<path d="M1832 1145 c0 -16 2 -22 5 -12 2 9 2 23 0 30 -3 6 -5 -1 -5 -18z"/>
<path d="M1829 1042 c-3 -20 -2 -29 4 -23 5 5 7 19 5 32 -3 20 -5 19 -9 -9z"/>
<path d="M3039 888 c-23 -46 -61 -110 -85 -144 -47 -66 -173 -184 -197 -184
-8 0 -20 -7 -27 -15 -18 -22 -119 -78 -165 -92 -22 -6 -65 -19 -95 -28 -36
-10 -96 -16 -172 -17 -65 0 -118 -2 -118 -3 0 -2 26 -11 58 -20 31 -9 82 -29
112 -43 50 -25 67 -27 197 -30 123 -3 152 -1 210 17 36 12 73 21 80 21 26 0
238 134 293 185 69 65 94 79 118 66 9 -5 47 -41 85 -80 37 -39 72 -71 77 -71
5 0 -22 31 -60 68 -39 38 -70 73 -70 78 0 6 -18 27 -40 49 -21 21 -42 52 -46
68 -3 17 -17 49 -29 71 -12 23 -33 74 -46 114 -12 39 -27 72 -31 72 -4 0 -26
-37 -49 -82z"/>
<path d="M1821 894 c0 -11 3 -14 6 -6 3 7 2 16 -1 19 -3 4 -6 -2 -5 -13z"/>
<path d="M1841 804 c-1 -11 6 -45 15 -75 13 -43 18 -50 24 -34 4 12 2 25 -7
33 -7 7 -13 23 -14 35 0 12 -4 31 -9 42 -8 20 -9 20 -9 -1z"/>
<path d="M1890 650 c6 -11 13 -20 16 -20 2 0 0 9 -6 20 -6 11 -13 20 -16 20
-2 0 0 -9 6 -20z"/>
<path d="M1955 550 c10 -11 20 -20 23 -20 3 0 -3 9 -13 20 -10 11 -20 20 -23
20 -3 0 3 -9 13 -20z"/>
<path d="M3430 435 c0 -12 81 -44 125 -49 l50 -6 -63 19 c-35 10 -69 24 -75
30 -11 11 -37 15 -37 6z"/>
</g>
</svg>
